<?xml version="1.0" encoding="UTF-8"?>
<svg xmlns="http://www.w3.org/2000/svg" xmlns:xlink="http://www.w3.org/1999/xlink" width="527px" height="527px" viewBox="0 0 527 527" version="1.1">
<g id="surface1">
<path style=" stroke:none;fill-rule:nonzero;fill:rgb(0%,0%,0%);fill-opacity:1;" d="M 257.527344 210.097656 C 255.945312 211.503906 254.714844 213.609375 254.714844 214.488281 C 254.714844 215.367188 252.609375 216.070312 250.148438 216.070312 C 244.703125 216.070312 238.378906 219.230469 239.785156 221.339844 C 240.3125 222.042969 243.472656 221.867188 246.8125 220.8125 C 255.242188 218.355469 261.742188 221.691406 261.742188 228.542969 C 261.742188 231.175781 262.621094 233.988281 263.5 234.515625 C 264.554688 235.21875 265.257812 233.285156 265.257812 229.949219 C 265.257812 224.152344 269.121094 219.757812 274.214844 219.582031 C 277.730469 219.582031 288.796875 224.503906 295.648438 229.070312 C 302.148438 233.460938 301.621094 237.851562 293.890625 242.421875 C 288.621094 245.40625 286.6875 245.757812 283.351562 244.351562 C 277.90625 241.894531 273.511719 241.894531 274.390625 244.351562 C 274.742188 245.40625 275.445312 245.933594 275.796875 245.757812 C 276.324219 245.582031 278.433594 246.285156 280.714844 247.515625 C 284.578125 249.621094 286.160156 256.472656 282.824219 256.472656 C 281.945312 256.472656 281.066406 257.703125 281.066406 259.460938 C 281.066406 261.917969 281.417969 261.917969 284.578125 259.109375 C 286.511719 257.351562 288.09375 254.714844 288.09375 253.136719 C 288.09375 251.554688 291.253906 248.566406 295.121094 246.285156 C 300.917969 242.945312 302.671875 242.769531 305.484375 244.527344 C 308.46875 246.285156 309.523438 246.109375 312.511719 243.472656 C 319.363281 237.148438 315.671875 227.488281 307.066406 228.71875 C 304.605469 228.894531 299.335938 226.785156 294.242188 223.449219 C 289.5 220.285156 282.648438 217.300781 278.957031 216.773438 C 274.742188 216.070312 271.40625 214.136719 269.648438 211.503906 C 266.488281 206.585938 261.390625 206.058594 257.527344 210.097656 Z M 267.011719 213.609375 C 268.945312 215.71875 268.769531 216.773438 266.488281 219.230469 C 263.675781 221.867188 263.324219 221.867188 260.511719 219.230469 C 258.230469 216.773438 258.054688 215.71875 259.988281 213.609375 C 261.214844 212.03125 262.796875 210.800781 263.5 210.800781 C 264.203125 210.800781 265.785156 212.03125 267.011719 213.609375 Z M 311.808594 236.273438 C 311.808594 238.554688 310.402344 239.960938 307.945312 240.3125 C 304.957031 240.839844 303.902344 239.960938 303.902344 237.5 C 303.902344 235.746094 304.429688 233.636719 305.132812 232.933594 C 307.417969 230.648438 311.808594 232.757812 311.808594 236.273438 Z M 311.808594 236.273438 "/>
<path style=" stroke:none;fill-rule:nonzero;fill:rgb(0%,0%,0%);fill-opacity:1;" d="M 220.636719 215.191406 C 219.054688 217.476562 217.828125 222.394531 217.828125 225.90625 C 217.828125 231.351562 219.054688 233.460938 225.027344 238.730469 C 228.894531 242.246094 238.027344 251.027344 245.230469 258.230469 C 257 270 258.230469 270.878906 258.230469 266.835938 C 258.230469 264.378906 256.648438 260.511719 254.714844 258.230469 C 252.785156 255.945312 251.203125 252.257812 251.203125 249.972656 C 251.203125 246.636719 252.082031 245.933594 256.121094 245.933594 C 262.269531 245.933594 269.824219 249.972656 269.121094 252.785156 C 268.945312 254.015625 269.472656 254.539062 270.351562 253.839844 C 271.40625 253.3125 273.335938 255.59375 274.742188 259.109375 C 278.257812 267.539062 281.242188 267.1875 278.957031 258.582031 C 276.324219 247.867188 266.3125 238.378906 253.839844 234.691406 C 242.769531 231.351562 236.449219 226.433594 229.773438 216.597656 C 225.027344 209.746094 224.328125 209.570312 220.636719 215.191406 Z M 227.664062 223.976562 C 228.367188 225.378906 229.421875 226.257812 230.300781 225.730469 C 231 225.203125 232.582031 226.433594 233.636719 228.542969 C 234.867188 230.476562 239.082031 233.8125 243.296875 235.570312 C 247.515625 237.5 251.378906 239.609375 251.730469 240.3125 C 252.082031 241.015625 250.675781 243.121094 248.566406 245.230469 L 244.703125 248.742188 L 233.8125 240.3125 C 225.027344 233.285156 223.097656 230.824219 223.097656 226.609375 C 223.097656 221.164062 226.082031 219.40625 227.664062 223.976562 Z M 227.664062 223.976562 "/>
<path style=" stroke:none;fill-rule:nonzero;fill:rgb(0%,0%,0%);fill-opacity:1;" d="M 214.3125 248.042969 C 208.867188 259.8125 209.570312 278.605469 215.542969 291.078125 C 231.351562 323.226562 273.6875 330.78125 299.160156 306.011719 C 307.59375 297.929688 314.09375 285.457031 315.671875 274.742188 C 316.550781 268.066406 316.199219 266.660156 314.269531 267.363281 C 312.863281 267.890625 311.28125 271.757812 310.578125 276.5 C 307.417969 299.160156 285.984375 316.902344 262.621094 316.726562 C 243.472656 316.375 228.367188 306.890625 219.757812 289.5 C 213.257812 276.5 212.558594 264.554688 217.828125 250.851562 C 221.867188 239.960938 221.867188 240.664062 219.582031 240.664062 C 218.53125 240.664062 216.070312 244 214.3125 248.042969 Z M 214.3125 248.042969 "/>
<path style=" stroke:none;fill-rule:nonzero;fill:rgb(0%,0%,0%);fill-opacity:1;" d="M 264.730469 254.367188 C 265.257812 257.703125 264.730469 261.917969 263.5 264.378906 C 262.269531 266.488281 261.742188 269.472656 262.269531 270.878906 C 262.796875 272.109375 264.378906 270.351562 266.136719 266.3125 C 268.769531 259.988281 268.769531 258.757812 266.3125 254.015625 L 263.675781 248.566406 Z M 264.730469 254.367188 "/>
<path style=" stroke:none;fill-rule:nonzero;fill:rgb(0%,0%,0%);fill-opacity:1;" d="M 269.296875 265.433594 C 267.1875 273.6875 269.296875 276.148438 272.984375 269.296875 C 274.917969 265.257812 275.09375 263.675781 273.335938 261.390625 C 271.40625 258.757812 270.878906 259.285156 269.296875 265.433594 Z M 269.296875 265.433594 "/>
<path style=" stroke:none;fill-rule:nonzero;fill:rgb(0%,0%,0%);fill-opacity:1;" d="M 224.851562 268.066406 C 222.921875 270.175781 223.097656 271.230469 225.378906 273.6875 C 228.015625 276.324219 228.71875 276.324219 231 273.863281 C 233.988281 270.878906 232.933594 265.257812 229.246094 265.257812 C 228.015625 265.257812 226.082031 266.488281 224.851562 268.066406 Z M 224.851562 268.066406 "/>
<path style=" stroke:none;fill-rule:nonzero;fill:rgb(0%,0%,0%);fill-opacity:1;" d="M 293.363281 267.890625 C 291.429688 270.175781 291.429688 271.054688 293.714844 273.335938 C 297.226562 276.851562 302.496094 274.566406 301.796875 269.824219 C 301.09375 265.257812 296.523438 264.203125 293.363281 267.890625 Z M 293.363281 267.890625 "/>
<path style=" stroke:none;fill-rule:nonzero;fill:rgb(0%,0%,0%);fill-opacity:1;" d="M 241.71875 277.203125 C 240.136719 279.835938 245.054688 283 248.394531 281.769531 C 249.972656 281.066406 251.027344 279.660156 250.675781 278.605469 C 249.796875 276.148438 243.121094 275.09375 241.71875 277.203125 Z M 241.71875 277.203125 "/>
<path style=" stroke:none;fill-rule:nonzero;fill:rgb(0%,0%,0%);fill-opacity:1;" d="M 276.5 277.730469 C 274.917969 280.363281 278.605469 283.527344 281.769531 282.296875 C 283.351562 281.59375 284.578125 280.011719 284.578125 278.433594 C 284.578125 275.445312 278.433594 274.742188 276.5 277.730469 Z M 276.5 277.730469 "/>
<path style=" stroke:none;fill-rule:nonzero;fill:rgb(0%,0%,0%);fill-opacity:1;" d="M 255.59375 279.308594 C 255.066406 280.1875 255.59375 281.59375 257 282.121094 C 261.039062 283.527344 271.40625 282.121094 271.40625 280.1875 C 271.40625 277.730469 257 276.851562 255.59375 279.308594 Z M 255.59375 279.308594 "/>
<path style=" stroke:none;fill-rule:nonzero;fill:rgb(0%,0%,0%);fill-opacity:1;" d="M 230.824219 288.445312 C 229.421875 290.726562 235.042969 299.863281 240.664062 304.605469 C 256.824219 318.132812 284.230469 313.214844 293.363281 295.121094 C 295.296875 291.253906 296.351562 288.09375 295.648438 288.09375 C 280.890625 287.214844 231.351562 287.566406 230.824219 288.445312 Z M 282.472656 293.1875 C 291.957031 293.539062 281.769531 303.550781 267.890625 307.59375 C 260.863281 309.699219 247.164062 305.132812 242.246094 298.984375 C 239.082031 294.945312 239.082031 294.242188 241.542969 293.363281 C 243.824219 292.484375 263.148438 292.484375 282.472656 293.1875 Z M 282.472656 293.1875 "/>
</g>
</svg>
