<?xml version="1.0" standalone="no"?>
<!DOCTYPE svg PUBLIC "-//W3C//DTD SVG 20010904//EN"
 "http://www.w3.org/TR/2001/REC-SVG-20010904/DTD/svg10.dtd">
<svg version="1.0" xmlns="http://www.w3.org/2000/svg"
 width="300.000000pt" height="300.000000pt" viewBox="0 0 300.000000 300.000000"
 preserveAspectRatio="xMidYMid meet">
<metadata>
Created by potrace 1.10, written by Peter Selinger 2001-2011
</metadata>
<g transform="translate(0.000000,300.000000) scale(0.100000,-0.100000)"
fill="#000000" stroke="none">
<path d="M1466 1804 c-9 -8 -16 -20 -16 -25 0 -5 -12 -9 -26 -9 -31 0 -67 -18
-59 -30 3 -4 21 -3 40 3 48 14 85 -5 85 -44 0 -15 5 -31 10 -34 6 -4 10 7 10
26 0 33 22 58 51 59 20 0 83 -28 122 -54 37 -25 34 -50 -10 -76 -30 -17 -41
-19 -60 -11 -31 14 -56 14 -51 0 2 -6 6 -9 8 -8 3 1 15 -3 28 -10 22 -12 31
-51 12 -51 -5 0 -10 -7 -10 -17 0 -14 2 -14 20 2 11 10 20 25 20 34 0 9 18 26
40 39 33 19 43 20 59 10 17 -10 23 -9 40 6 39 36 18 91 -31 84 -14 -1 -44 11
-73 30 -27 18 -66 35 -87 38 -24 4 -43 15 -53 30 -18 28 -47 31 -69 8z m54
-20 c11 -12 10 -18 -3 -32 -16 -15 -18 -15 -34 0 -13 14 -14 20 -3 32 7 9 16
16 20 16 4 0 13 -7 20 -16z m255 -129 c0 -13 -8 -21 -22 -23 -17 -3 -23 2 -23
16 0 10 3 22 7 26 13 13 38 1 38 -19z"/>
<path d="M1256 1775 c-9 -13 -16 -41 -16 -61 0 -31 7 -43 41 -73 22 -20 74
-70 115 -111 67 -67 74 -72 74 -49 0 14 -9 36 -20 49 -11 13 -20 34 -20 47 0
19 5 23 28 23 35 0 78 -23 74 -39 -1 -7 2 -10 7 -6 6 3 17 -10 25 -30 20 -48
37 -46 24 3 -15 61 -72 115 -143 136 -63 19 -99 47 -137 103 -27 39 -31 40
-52 8z m40 -50 c4 -8 10 -13 15 -10 4 3 13 -4 19 -16 7 -11 31 -30 55 -40 24
-11 46 -23 48 -27 2 -4 -6 -16 -18 -28 l-22 -20 -62 48 c-50 40 -61 54 -61 78
0 31 17 41 26 15z"/>
<path d="M1220 1588 c-31 -67 -27 -174 7 -245 90 -183 331 -226 476 -85 48 46
85 117 94 178 5 38 3 46 -8 42 -8 -3 -17 -25 -21 -52 -18 -129 -140 -230 -273
-229 -109 2 -195 56 -244 155 -37 74 -41 142 -11 220 23 62 23 58 10 58 -6 0
-20 -19 -30 -42z"/>
<path d="M1507 1552 c3 -19 0 -43 -7 -57 -7 -12 -10 -29 -7 -37 3 -7 12 3 22
26 15 36 15 43 1 70 l-15 31 6 -33z"/>
<path d="M1533 1489 c-12 -47 0 -61 21 -22 11 23 12 32 2 45 -11 15 -14 12
-23 -23z"/>
<path d="M1280 1474 c-11 -12 -10 -18 3 -32 15 -15 19 -15 32 -1 17 17 11 49
-10 49 -7 0 -18 -7 -25 -16z"/>
<path d="M1670 1475 c-11 -13 -11 -18 2 -31 20 -20 50 -7 46 20 -4 26 -30 32
-48 11z"/>
<path d="M1376 1422 c-9 -15 19 -33 38 -26 9 4 15 12 13 18 -5 14 -43 20 -51
8z"/>
<path d="M1574 1419 c-9 -15 12 -33 30 -26 9 4 16 13 16 22 0 17 -35 21 -46 4z"/>
<path d="M1455 1410 c-3 -5 0 -13 8 -16 23 -8 82 0 82 11 0 14 -82 19 -90 5z"/>
<path d="M1314 1358 c-8 -13 24 -65 56 -92 92 -77 248 -49 300 54 11 22 17 40
13 40 -84 5 -366 3 -369 -2z m294 -27 c54 -2 -4 -59 -83 -82 -40 -12 -118 14
-146 49 -18 23 -18 27 -4 32 13 5 123 5 233 1z"/>
</g>
</svg>
